<svg xmlns="http://www.w3.org/2000/svg" data-name="Layer 1" viewBox="0 0 512 640" x="0px" y="0px"><title>Down Arrow, Arrow, Double Arrow</title><path d="M256,329.39a11.06,11.06,0,0,1-7.83-3.23L10.35,88.67a8,8,0,0,1,11.3-11.33L256,311.36l234.35-234a8,8,0,0,1,11.3,11.33L263.83,326.16A11.08,11.08,0,0,1,256,329.39Z"/><path d="M256,437a11.06,11.06,0,0,1-7.83-3.23L10.35,196.27A8,8,0,1,1,21.65,185L256,419,490.35,185a8,8,0,1,1,11.3,11.32L263.83,433.76A11,11,0,0,1,256,437Z"/><text x="0" y="527" fill="#000000" font-size="5px" font-weight="bold" font-family="'Helvetica Neue', Helvetica, Arial-Unicode, Arial, Sans-serif">Created by Iconsparks</text><text x="0" y="532" fill="#000000" font-size="5px" font-weight="bold" font-family="'Helvetica Neue', Helvetica, Arial-Unicode, Arial, Sans-serif">from the Noun Project</text></svg>